<?xml version="1.0" encoding="utf-8"?>
<!-- Generator: Adobe Illustrator 22.1.0, SVG Export Plug-In . SVG Version: 6.00 Build 0)  -->
<svg version="1.1" id="Calque_1" xmlns="http://www.w3.org/2000/svg" xmlns:xlink="http://www.w3.org/1999/xlink" x="0px" y="0px"
	 viewBox="0 0 1000 1000" style="enable-background:new 0 0 1000 1000;" xml:space="preserve">
<style type="text/css">
	.st0{fill:#0066B2;}
	.st1{fill:#C2D4E8;}
</style>
<g>
	<g>
		<path class="st0" d="M633.6,524.4c-3.9,2.1-8.8,3.1-14.5,3.1c-4.3,0-8.2-0.8-11.8-2.5c-3.6-1.7-6.6-3.9-9.1-6.8
			c-2.5-2.9-4.5-6.2-5.9-10c-1.4-3.8-2.1-7.8-2.1-12.1v-0.3c0-4.3,0.7-8.3,2.1-12c1.4-3.8,3.4-7.1,6-9.9c2.6-2.9,5.6-5.1,9.2-6.7
			c3.6-1.6,7.4-2.4,11.6-2.4c5,0,9.6,1,13.6,3c4,2,8,4.8,11.9,8.3l14-16.1c-2.3-2.3-4.8-4.4-7.4-6.3c-2.7-1.9-5.6-3.5-8.7-4.8
			c-3.1-1.3-6.6-2.4-10.5-3.1c-3.8-0.8-8.1-1.1-12.8-1.1c-7.7,0-14.7,1.4-21.1,4.1c-6.4,2.7-11.8,6.4-16.4,11.1
			c-4.6,4.7-8.1,10.2-10.7,16.4c-2.6,6.2-3.8,12.9-3.8,20v0.3c0,7.1,1.3,13.8,3.8,20.1c2.6,6.3,6.1,11.7,10.7,16.3
			c4.6,4.6,10,8.2,16.2,10.9c6.3,2.7,13.1,4,20.4,4c4.8,0,9.2-0.4,13.1-1.2c3.9-0.8,7.5-2,10.8-3.6c3.3-1.6,6.3-3.4,9-5.6
			c2.8-2.2,5.4-4.7,8-7.4l-14-14.1C641.5,519.5,637.5,522.3,633.6,524.4z"/>
		<path class="st0" d="M544.3,496.8c-2.7-2.3-6-4.3-10-6c-3.9-1.7-8.4-3.2-13.5-4.5c-4.3-1.1-7.8-2.1-10.6-3c-2.8-0.9-5-1.8-6.6-2.7
			c-1.6-0.9-2.7-2-3.3-3.2c-0.6-1.2-0.9-2.6-0.9-4.2V473c0-2.5,1.1-4.5,3.2-6.2c2.1-1.7,5.3-2.5,9.6-2.5c4.3,0,8.6,0.9,12.8,2.6
			c4.3,1.8,8.6,4.2,13.1,7.2l11.4-16.5c-5.1-4.1-10.8-7.2-16.9-9.4c-6.1-2.2-12.9-3.3-20.2-3.3c-5.1,0-9.8,0.7-14.1,2.1
			c-4.3,1.4-7.9,3.5-11,6.1c-3.1,2.7-5.4,5.8-7.1,9.5c-1.7,3.7-2.5,7.8-2.5,12.3v0.3c0,4.9,0.8,9.1,2.4,12.4
			c1.6,3.3,3.8,6.1,6.6,8.3c2.9,2.2,6.3,4.1,10.4,5.6c4.1,1.5,8.6,2.9,13.7,4.1c4.2,1,7.6,2,10.2,3c2.6,1,4.7,1.9,6.1,2.9
			c1.5,1,2.5,2,3,3.1c0.5,1.1,0.8,2.4,0.8,3.8v0.3c0,2.9-1.3,5.2-3.8,6.9c-2.5,1.7-6.1,2.5-10.6,2.5c-5.7,0-11-1.1-15.7-3.3
			c-4.8-2.2-9.5-5.1-14-8.8l-13,15.5c6,5.4,12.6,9.4,20,12c7.3,2.6,14.8,3.9,22.4,3.9c5.4,0,10.3-0.7,14.8-2.1
			c4.4-1.4,8.3-3.4,11.5-6c3.2-2.6,5.7-5.8,7.5-9.7c1.8-3.8,2.7-8.2,2.7-13.2v-0.3c0-4.4-0.7-8.1-2.1-11.3
			C549,501.9,547,499.2,544.3,496.8z"/>
		<path class="st0" d="M763.6,459.6c-4.7-4.6-10.3-8.3-16.7-11c-6.5-2.7-13.5-4.1-21.2-4.1c-7.7,0-14.8,1.4-21.3,4.1
			c-6.5,2.7-12.1,6.4-16.8,11.1c-4.7,4.7-8.4,10.2-11,16.4c-2.7,6.2-4,12.9-4,20v0.3c0,7.1,1.3,13.8,3.9,20
			c2.6,6.2,6.3,11.6,11,16.2c4.7,4.6,10.3,8.3,16.7,11c6.5,2.7,13.5,4.1,21.2,4.1c7.7,0,14.8-1.4,21.3-4.1
			c6.5-2.7,12.1-6.4,16.8-11.1c4.7-4.7,8.4-10.2,11-16.4c2.7-6.2,4-12.9,4-20v-0.3c0-7.1-1.3-13.8-3.9-20
			C771.9,469.7,768.3,464.3,763.6,459.6z M713.9,525.2c0-0.3,0-0.7,0-1.2c0-0.9,0.2-1.1,1.1-1.1c6.6,0,13.2,0,19.8,0
			c0.9,0,2-0.3,2.5,0.2c0.5,0.4,0.3,1.3,0.2,2.1c-3.6,1.6-7.6,2.3-11.9,2.3C721.3,527.5,717.4,526.8,713.9,525.2z M755.5,496.5
			c0,4.3-0.7,8.3-2.2,12c-1.2,3.2-2.9,6-5,8.5c-0.2,0-0.5,0-0.9,0c-9.9,0-19.8,0-29.7,0c-0.8,0-1.4-0.2-2.1-0.7
			c-5.3-3.8-7.2-10.8-4.5-16.8c1.4-3.2,3.8-5.5,6.9-6.9c0.3-0.1,1-0.1,0.6-0.8c-1-1.7-1.1-3.5-0.6-5.4c-11.6,3.1-19,18-10.3,30.6
			c-1.6,0-3,0-4.5,0c-0.2,0-0.4,0-0.5,0.1c-2.2-2.6-3.9-5.5-5.2-8.8c-1.5-3.8-2.2-7.8-2.2-12.1v-0.3c0-4.3,0.7-8.3,2.2-12
			c1.5-3.8,3.5-7.1,6.1-9.9c2.6-2.9,5.7-5.1,9.4-6.7c3.7-1.6,7.7-2.4,12.2-2.4c4.4,0,8.4,0.8,12.1,2.5c3.7,1.7,6.9,3.9,9.6,6.8
			s4.8,6.2,6.3,10c1.5,3.8,2.2,7.8,2.2,12.1V496.5z"/>
		<polygon class="st0" points="914.8,526.6 914.8,505.6 961.9,505.6 961.9,486.1 914.8,486.1 914.8,465.8 968.3,465.8 968.3,446.3 
			893.2,446.3 893.2,546.1 969,546.1 969,526.6 		"/>
		<path class="st0" d="M866.7,455.9c-3.3-3-7.3-5.4-12-7.1c-4.7-1.7-10-2.5-16-2.5H798v99.8h21.9v-29.9h16.7
			c5.6,0,10.9-0.7,15.7-2.2c4.9-1.5,9.2-3.7,12.8-6.6c3.7-2.9,6.5-6.6,8.6-11c2.1-4.4,3.1-9.5,3.1-15.2v-0.3c0-5.1-0.9-9.8-2.6-14
			C872.5,462.5,870,458.9,866.7,455.9z M854.7,481.6c0,4.3-1.5,7.8-4.6,10.7c-3,2.9-7.3,4.3-12.8,4.3h-17.4v-30.4h17
			c5.5,0,9.9,1.3,13,3.8c3.2,2.6,4.8,6.3,4.8,11.2V481.6z"/>
	</g>
	<g>
		<path class="st0" d="M729.6,499.3c-1.7,0-3.3,0-5,0c-0.8,0-1.1-0.3-0.9-1c0-0.1,0-0.2,0-0.2c0-0.8-0.2-1.8,0.1-2.4
			c0.4-0.8,1.5-0.2,2.2-0.4c3.4-0.7,5.9-3.9,5.5-7.4c-0.3-3.5-3.3-6.2-6.9-6.2c-0.4,0-1,0.4-1-0.5c0-0.7,0-1.4,0.9-1.4
			c0.8,0,1.1-0.2,1.1-1.1c0-0.9-0.4-0.9-1.1-0.9c-0.6,0-0.9-0.4-0.9-1c0-1.3,0-2.5,0-3.8c0-0.7,0.4-1.1,1.1-1.1c3.2,0,6.4,0,9.6,0
			c0.8,0,1.2,0.4,1.2,1.2c0,1.2,0,2.4,0,3.5c0,0.7-0.3,1.3-1.1,1.2c-0.8-0.1-0.9,0.3-0.9,1c0,0.6,0,1.1,0.8,1
			c0.9-0.1,1.2,0.5,1.2,1.2c0,5.9,0,11.8,0,17.7c0,0.6-0.2,0.7-0.8,0.7C733.1,499.3,731.3,499.3,729.6,499.3"/>
	</g>
	<g>
		<path class="st0" d="M731.6,506.6c0,1.2,0,2.2,0,3.2c0,0.9-0.4,1.3-1.3,1.3c-1.1,0-2.3,0-3.4,0c-0.8,0-1.2-0.4-1.2-1.2
			c0-0.5,0-1,0-1.5c0-1.9,0.2-3.7-1.2-5.4c-1.2-1.4-0.9-1.7,0.9-1.7c2.9,0,5.8,0,8.7,0c0.6,0,1.3-0.3,1.3,0.8c0,0.2,0.4,0.4,0.7,0.6
			c1.1,0.8,2.1,1.7,3.2,2.5c0.7,0.5,0.8,1.1,0.2,1.8c-0.7,0.9-1.4,1.7-2,2.6c-0.6,0.8-1.2,0.8-2,0.2
			C734.3,508.7,733,507.7,731.6,506.6"/>
	</g>
	<g>
		<path class="st0" d="M724.7,493.4c-2.8,0-4.9-2.2-4.9-4.9c0-2.7,2.2-5,4.9-4.9c2.7,0,4.9,2.2,4.9,4.9
			C729.7,491.1,727.4,493.4,724.7,493.4"/>
	</g>
	<g>
		<path class="st0" d="M729.6,515.1c-3.6,0-7.2,0-10.8,0c-0.4,0-1,0.2-1-0.6c0-0.6,0.1-1.2,0.8-1.4c0.3-0.1,0.6-0.1,0.9-0.1
			c6.7,0,13.4,0,20.2,0c0.4,0,0.7,0,1,0.1c0.7,0.2,0.7,0.8,0.7,1.5c0,0.7-0.6,0.5-1,0.5C736.8,515.1,733.2,515.1,729.6,515.1"/>
	</g>
	<g>
		<path class="st1" d="M75.8,445.2l-44,100.7h18l10.3-24.1h47.3l10.1,24.1h18.6l-44-100.7H75.8z M66.5,506.2l17.1-40l17.3,40H66.5z"
			/>
		<path class="st1" d="M282.5,505.3h25.6V524c-3,2.3-6.6,4.1-10.8,5.5c-4.1,1.4-8.6,2.1-13.4,2.1c-5.1,0-9.8-0.9-13.9-2.7
			c-4.1-1.8-7.7-4.3-10.7-7.4c-3-3.1-5.3-6.9-6.9-11.3c-1.6-4.4-2.4-9.2-2.4-14.3v-0.3c0-4.8,0.8-9.3,2.5-13.6c1.7-4.3,4-8,6.9-11.2
			c2.9-3.2,6.3-5.7,10.3-7.7c4-1.9,8.2-2.9,12.8-2.9c3.1,0,6,0.3,8.6,0.8c2.6,0.5,5,1.2,7.2,2.1c2.2,0.9,4.3,2,6.3,3.4
			c2,1.3,4,2.8,5.9,4.4l11.1-13.3c-2.6-2.2-5.2-4.1-7.9-5.7c-2.7-1.7-5.6-3-8.6-4.2c-3-1.1-6.4-2-9.9-2.6c-3.6-0.6-7.5-0.9-11.9-0.9
			c-7.5,0-14.5,1.4-20.8,4.1c-6.3,2.8-11.8,6.5-16.4,11.2c-4.6,4.7-8.1,10.2-10.6,16.5c-2.5,6.3-3.8,12.9-3.8,19.9v0.3
			c0,7.3,1.2,14.1,3.7,20.4c2.5,6.2,6,11.7,10.5,16.3c4.5,4.6,10,8.2,16.4,10.9c6.4,2.6,13.5,3.9,21.3,3.9c4.4,0,8.6-0.4,12.6-1.2
			c4-0.8,7.7-1.9,11.2-3.4c3.5-1.4,6.7-3.1,9.7-5c3-1.9,5.7-3.9,8.2-6v-42h-42.6V505.3z"/>
		<polygon class="st1" points="170.8,445.9 153.2,445.9 153.2,545.9 223.4,545.9 223.4,529.9 170.8,529.9 		"/>
		<path class="st1" d="M506,360.5c-12.8,0-23.2,10.4-23.2,23.2c0,5.4,1.9,10.4,5,14.3l-57.2,58.6c-3.9-3.4-8.4-6.2-13.5-8.4
			c-6.4-2.7-13.4-4.1-21.1-4.1c-7.7,0-14.8,1.4-21.1,4.1c-0.1,0-0.1,0.1-0.2,0.1l-20.4-28.7c3.6-4.1,5.9-9.5,5.9-15.4
			c0-12.8-10.4-23.2-23.2-23.2c-12.8,0-23.2,10.4-23.2,23.2c0,12.8,10.4,23.2,23.2,23.2c2.8,0,5.5-0.5,7.9-1.4l19.8,28
			c-2.3,1.7-4.5,3.4-6.5,5.5c-4.7,4.7-8.3,10.2-10.9,16.4c-2.6,6.2-3.9,12.9-3.9,19.9v0.3c0,7,1.3,13.7,3.9,19.9
			c2.6,6.2,6.1,11.7,10.7,16.4c4.6,4.7,10,8.4,16.4,11.1c6.4,2.7,13.4,4.1,21.1,4.1c4.8,0,9.3-0.6,13.5-1.6l13.8,18
			c-2.9,3.9-4.7,8.7-4.7,13.9c0,12.8,10.4,23.2,23.2,23.2s23.2-10.4,23.2-23.2s-10.4-23.2-23.2-23.2c-3.5,0-6.8,0.8-9.7,2.2
			l-11.5-15.1c4.9-2.5,9.3-5.7,13.1-9.5c4.7-4.7,8.3-10.2,10.9-16.4c2.6-6.2,3.9-12.9,3.9-19.9v-0.3c0-7-1.3-13.7-3.9-19.9
			c-1.6-3.9-3.6-7.4-6-10.6l0,0l58.6-60c2.8,1.2,5.9,1.9,9.2,1.9c12.8,0,23.2-10.4,23.2-23.2C529.2,370.9,518.8,360.5,506,360.5z
			 M336.9,416.1c-6.5,0-11.8-5.3-11.8-11.8c0-6.5,5.3-11.8,11.8-11.8c6.5,0,11.8,5.3,11.8,11.8C348.7,410.8,343.4,416.1,336.9,416.1
			z M441.6,566c6.5,0,11.8,5.3,11.8,11.8s-5.3,11.8-11.8,11.8s-11.8-5.3-11.8-11.8S435,566,441.6,566z M429.6,496.1
			c0,4.9-0.8,9.4-2.5,13.7c-1.7,4.3-4,8-6.9,11.2c-3,3.1-6.5,5.7-10.6,7.5c-4.1,1.9-8.7,2.8-13.6,2.8s-9.5-0.9-13.7-2.8
			c-4.2-1.9-7.8-4.4-10.8-7.7c-3-3.2-5.3-7-7-11.3c-1.7-4.3-2.5-8.9-2.5-13.7v-0.3c0-4.9,0.8-9.4,2.5-13.7c1.7-4.3,4-8,6.9-11.2
			c2.9-3.2,6.5-5.7,10.6-7.6c4.1-1.9,8.7-2.8,13.6-2.8c5,0,9.5,1,13.7,2.9c4.2,1.9,7.8,4.5,10.8,7.7c3,3.2,5.3,7,7,11.3
			c1.7,4.3,2.5,8.9,2.5,13.8V496.1z M506,395.6c-6.5,0-11.8-5.3-11.8-11.8c0-6.5,5.3-11.8,11.8-11.8c6.5,0,11.8,5.3,11.8,11.8
			C517.8,390.3,512.5,395.6,506,395.6z"/>
	</g>
</g>
</svg>
